<?xml version="1.0" standalone="no"?>
<!DOCTYPE svg PUBLIC "-//W3C//DTD SVG 20010904//EN"
 "http://www.w3.org/TR/2001/REC-SVG-20010904/DTD/svg10.dtd">
<svg version="1.0" xmlns="http://www.w3.org/2000/svg"
 width="512.000000pt" height="512.000000pt" viewBox="0 0 512.000000 512.000000"
 preserveAspectRatio="xMidYMid meet">

<g transform="translate(0.000000,512.000000) scale(0.100000,-0.100000)"
fill="#000000" stroke="none">
<path d="M2512 4957 c-19 -21 -22 -34 -22 -119 0 -113 14 -141 70 -141 56 0
70 28 70 142 0 89 -2 99 -23 119 -30 28 -68 28 -95 -1z"/>
<path d="M2329 4376 c-599 -106 -1063 -553 -1191 -1149 -18 -83 -22 -136 -22
-282 -1 -199 12 -286 64 -447 72 -219 171 -379 371 -598 157 -173 212 -245
251 -326 52 -110 79 -314 42 -314 -26 0 -70 -31 -88 -60 -13 -23 -16 -59 -16
-205 l0 -177 39 -39 39 -39 84 0 85 0 6 -74 c27 -311 291 -541 602 -523 282
16 505 235 531 521 l7 76 85 0 84 0 39 39 39 39 0 177 c0 146 -3 182 -16 205
-18 29 -62 60 -88 60 -37 0 -10 204 42 314 39 81 94 153 251 326 73 80 161
188 196 241 150 223 229 465 242 739 32 703 -440 1318 -1136 1482 -111 26
-427 34 -542 14z m468 -142 c246 -42 483 -166 674 -351 197 -191 317 -409 376
-683 14 -66 18 -126 17 -270 -1 -173 -3 -193 -32 -302 -38 -146 -96 -279 -171
-394 -61 -93 -89 -127 -260 -315 -198 -218 -262 -348 -278 -561 l-6 -88 -243
0 -244 0 0 427 0 428 255 255 c219 220 255 260 255 285 0 17 -4 35 -8 41 -13
20 -53 35 -75 28 -12 -3 -129 -112 -259 -242 l-238 -236 -237 236 c-131 130
-248 239 -260 242 -22 7 -62 -8 -75 -28 -4 -6 -8 -25 -8 -41 0 -26 34 -64 255
-285 l255 -255 0 -427 0 -428 -244 0 -243 0 -6 83 c-17 221 -79 347 -278 566
-167 184 -198 222 -254 306 -72 110 -111 190 -150 309 -51 159 -60 222 -60
421 1 160 4 191 27 286 67 265 182 466 376 651 304 292 716 416 1139 342z
m453 -3231 l0 -128 -690 0 -690 0 0 121 c0 66 3 124 7 127 3 4 314 7 690 7
l683 0 0 -127z m-260 -310 c0 -81 -49 -204 -107 -269 -136 -154 -379 -189
-551 -80 -108 68 -187 195 -199 319 l-6 67 432 0 431 0 0 -37z"/>
<path d="M833 4260 c-29 -12 -46 -46 -38 -77 7 -30 85 -115 131 -144 53 -32
104 -5 104 54 0 27 -12 44 -67 99 -72 70 -95 82 -130 68z"/>
<path d="M4240 4263 c-8 -3 -45 -35 -82 -71 -56 -55 -68 -72 -68 -99 0 -52 49
-85 92 -62 60 32 148 134 148 172 0 35 -56 72 -90 60z"/>
<path d="M571 2557 c-37 -19 -48 -63 -24 -96 19 -25 25 -26 123 -29 95 -2 105
-1 126 19 31 29 30 64 -1 94 -22 23 -32 25 -112 25 -50 0 -99 -6 -112 -13z"/>
<path d="M4325 2546 c-30 -30 -32 -65 -5 -94 19 -20 31 -22 125 -22 101 0 104
1 125 27 15 19 19 35 15 53 -12 47 -29 55 -135 58 -95 4 -100 3 -125 -22z"/>
</g>
</svg>
